<svg width="68" height="68" fill="none" xmlns="http://www.w3.org/2000/svg"><path d="M51.937 15.45c-6.027 0-13.776 4.305-13.489 13.201 0 0-11.766-3.73-15.21 8.61 0 0-2.01-4.305-4.592-6.314-2.87-2.008-6.314-7.174-6.601-9.757.287-1.435.574-1.435 1.148-1.722.287 0 .287 2.296 2.87 2.583 2.296-.287 2.87-.861 3.73-2.01l2.584-2.87s2.583-3.443.287-5.165c-2.01-2.01-5.74-5.74-10.332-4.88C9.749 7.702 7.74 9.71 7.74 9.71l-3.444 3.157S2 15.163 2 19.755c0 4.018.861 10.619.861 10.619l1.148 6.887c.287 1.722 2.583 11.767 8.036 17.22 3.444 4.018 5.453 5.74 7.175 6.027 2.87 0 4.305-1.722 6.6-1.722 2.297 0 4.593 1.722 9.471 1.722 4.88 0 15.785-2.87 20.377-16.933C59.973 41.853 66 38.696 66 29.225c0-9.47-8.323-13.775-14.063-13.775zm2.01 26.403C50.788 54.481 40.743 57.925 35.864 58.5c-4.592 0-7.174-1.722-10.618-1.722-2.01 0-4.88 1.722-5.74 1.722-.861 0-3.157-2.009-6.027-5.166-2.87-3.157-4.018-6.027-5.166-8.323-1.148-2.296-3.157-11.48-3.157-11.48s-.861-9.183-.861-13.201c0-3.731 1.722-6.027 1.722-6.027l4.592-4.018c2.583-2.01 5.74-.574 5.74-.574s3.157 2.009 4.305 3.157c1.435 1.148 0 2.296 0 2.296s-3.157 4.018-4.305 4.305c-1.435.287-1.722-3.157-1.722-3.157-1.435.574-3.731 1.148-4.592 3.73-.861 3.158 3.73 9.758 7.175 12.915 3.157 3.157 5.166 8.323 5.166 8.323l2.583-.86s-.287-6.028 4.879-9.184c5.74-3.157 10.905 1.148 10.905 1.148-1.722-14.35 10.906-14.637 11.767-14.637.861 0 10.906.86 11.767 10.905-.574 11.48-10.332 13.202-10.332 13.202z" fill="#292929"/></svg>