<svg width="68" height="68" fill="none" xmlns="http://www.w3.org/2000/svg"><path d="M34 2C16.431 2 2 16.431 2 34c0 17.569 14.431 32 32 32 17.569 0 32-14.431 32-32C66 16.431 51.569 2 34 2zm0 61.49C17.686 63.49 4.51 50.314 4.51 34S17.686 4.51 34 4.51 63.49 17.686 63.49 34 50.314 63.49 34 63.49z" fill="#292929"/><path d="M34 50.627c-10.98 0-17.569-9.725-17.569-9.725l-2.196 1.569C23.02 53.765 34 53.45 34 53.45s10.98.627 19.765-10.98l-2.196-1.569S44.98 50.627 34 50.627zM23.333 37.451c7.53-3.451 8.785-7.843 8.785-10.04 0-2.509-1.569-5.333-4.393-5.333-3.137 0-4.392 1.57-4.392 1.57s-1.255-1.57-4.392-1.57c-2.823 0-4.392 3.138-4.392 5.334 0 2.196 1.255 6.588 8.784 10.039zm0-10.667c1.569-2.51 5.961-2.823 6.275.314 0 4.392-6.275 7.53-6.275 7.53s-6.274-3.138-6.274-7.53c.313-3.137 4.706-2.823 6.274-.314zm21.334 10.667c7.53-3.451 8.784-7.843 8.784-9.726 0-2.51-1.569-5.333-4.392-5.333-3.137 0-4.392 1.569-4.392 1.569s-1.255-1.569-4.392-1.569c-2.824 0-4.393 3.137-4.393 5.334 0 1.882 1.255 6.274 8.785 9.725zm0-10.667c1.568-2.51 5.96-2.823 6.274.314 0 4.392-6.274 7.53-6.274 7.53s-6.275-3.138-6.275-7.53c.314-3.137 4.706-2.823 6.275-.314z" fill="#292929"/></svg>