<svg width="46" height="46" fill="none" xmlns="http://www.w3.org/2000/svg"><path d="M44.69 7.164L38.807 1.28A4.324 4.324 0 0035.73 0a4.348 4.348 0 00-3.087 1.279 4.379 4.379 0 00-1.279 3.182 4.375 4.375 0 00-3.18 1.279 4.378 4.378 0 00-1.279 3.181 4.334 4.334 0 00-3.18 1.28 4.378 4.378 0 00-1.28 3.181 4.376 4.376 0 00-3.18 1.279L4.713 29.218.316 33.616a.991.991 0 00-.27.437c0 .02-.01.031-.01.052a.97.97 0 00.061.686c.021.052.052.094.073.146.135.197.333.353.582.426l3.566 1.019 1.018 3.567c.094.343.364.613.718.717l3.565 1.019 1.019 3.566c.072.25.228.448.436.583a.56.56 0 00.135.072 1.016 1.016 0 00.718.052.98.98 0 00.467-.28l4.397-4.399 6.31-6.311a1.036 1.036 0 001.466 0l7.515-7.518a1.036 1.036 0 000-1.466l-.094-.093a4.428 4.428 0 00.634-2.36 4.376 4.376 0 003.18-1.28 4.379 4.379 0 001.28-3.181 4.335 4.335 0 003.18-1.28 4.379 4.379 0 001.279-3.181 4.376 4.376 0 003.18-1.279A4.351 4.351 0 0046 10.242c-.031-1.154-.478-2.256-1.31-3.078zm-32.556 35.8l-.686-2.423a1.039 1.039 0 00-.717-.717l-3.565-1.009-1.019-3.566a1.038 1.038 0 00-.717-.718l-2.422-.686 2.422-2.423 9.116 9.12-2.412 2.422zM24.421 32.15l-2.443-11.302a1.05 1.05 0 00-1.237-.801 1.05 1.05 0 00-.8 1.237l2.463 11.407-6.382 6.384-9.116-9.119 13.087-13.09 9.854 9.856-5.426 5.428zm18.804-20.286a2.261 2.261 0 01-2.63.426 1.028 1.028 0 00-1.196.198c-.311.322-.395.8-.197 1.196a2.29 2.29 0 01-.426 2.63 2.275 2.275 0 01-2.63.427 1.028 1.028 0 00-1.196.197c-.311.312-.395.8-.197 1.196a2.29 2.29 0 01-.426 2.63 2.262 2.262 0 01-2.63.427 1.028 1.028 0 00-1.195.197 1.047 1.047 0 00-.198 1.196 2.27 2.27 0 01.125 1.726l-8.763-8.765a2.317 2.317 0 011.726.124c.395.198.883.125 1.195-.197.312-.322.395-.8.198-1.196a2.29 2.29 0 01.426-2.63 2.275 2.275 0 012.63-.427c.395.198.883.125 1.195-.197.312-.312.395-.8.197-1.196a2.29 2.29 0 01.427-2.63 2.261 2.261 0 012.63-.427c.395.198.883.125 1.195-.198.312-.312.395-.8.197-1.195a2.29 2.29 0 01.427-2.631 2.262 2.262 0 011.621-.665c.613 0 1.185.239 1.622.665l5.873 5.885c.436.437.665 1.009.665 1.622 0 .603-.24 1.186-.665 1.612z" fill="#fff"/></svg>