<svg width="53" height="38" fill="none" xmlns="http://www.w3.org/2000/svg"><path d="M0 8.565c0-2.461.8-4.43 2.4-6.104C4.1.886 6.1 0 8.6 0c2.6 0 4.6.69 6.2 2.166l-1.2 1.772c-.6-.59-1.4-.985-2.3-1.28-.9-.295-1.7-.492-2.6-.492-1.9 0-3.4.59-4.6 1.772C3 5.218 2.5 6.694 2.5 8.565c0 1.87.6 3.445 1.7 4.725 1.2 1.28 2.7 1.87 4.6 1.87.9 0 1.9-.196 2.8-.59.9-.394 1.7-.886 2.4-1.575l1.3 1.673c-1.8 1.772-4 2.658-6.6 2.658-2.6 0-4.7-.787-6.3-2.46C.8 13.092 0 11.025 0 8.564zm18.3 8.466V.295h2.3V7.58h8.8V.295h2.4v16.638h-2.4V9.648h-8.8v7.285h-2.3v.098zm16.9-8.466c0-2.363.8-4.43 2.5-6.104C39.3.788 41.4 0 43.9 0s4.6.788 6.2 2.461c1.7 1.674 2.5 3.643 2.5 6.104 0 2.46-.8 4.528-2.5 6.202-1.7 1.673-3.7 2.56-6.2 2.56s-4.6-.887-6.2-2.56c-1.7-1.674-2.5-3.741-2.5-6.202zm2.5 0c0 1.87.6 3.445 1.8 4.725 1.2 1.28 2.7 1.87 4.5 1.87 1.8 0 3.3-.59 4.5-1.87 1.2-1.28 1.8-2.855 1.8-4.725 0-1.772-.6-3.347-1.8-4.529-1.2-1.181-2.7-1.87-4.5-1.87-1.8 0-3.3.59-4.5 1.87-1.3 1.182-1.8 2.658-1.8 4.529zM0 29.238c0-2.46.8-4.43 2.4-6.103 1.7-1.575 3.7-2.461 6.2-2.461 2.6 0 4.6.689 6.2 2.165l-1.2 1.772c-.6-.59-1.4-.984-2.3-1.28-.9-.295-1.8-.492-2.6-.492-1.9 0-3.4.591-4.6 1.772-1.1 1.182-1.7 2.757-1.7 4.529 0 1.87.6 3.446 1.7 4.725 1.2 1.28 2.7 1.87 4.6 1.87.9 0 1.9-.196 2.8-.59.9-.394 1.7-.886 2.4-1.575l1.3 1.673c-1.8 1.773-4 2.658-6.6 2.658-2.6 0-4.7-.787-6.3-2.46C.8 33.766 0 31.698 0 29.237zm16.8 0c0-2.46.8-4.43 2.4-6.103 1.6-1.575 3.7-2.461 6.2-2.461 2.6 0 4.6.689 6.2 2.165l-1.2 1.772c-.6-.59-1.4-.984-2.3-1.28-.9-.295-1.8-.492-2.6-.492-1.9 0-3.4.591-4.6 1.772-1.1 1.182-1.7 2.757-1.7 4.529 0 1.87.6 3.446 1.7 4.725 1.2 1.28 2.7 1.87 4.6 1.87.9 0 1.9-.196 2.8-.59.9-.394 1.7-.886 2.4-1.575l1.3 1.673c-1.8 1.773-4 2.658-6.6 2.658-2.6 0-4.7-.787-6.3-2.46-1.5-1.674-2.3-3.742-2.3-6.203zm16.8 0c0-2.362.8-4.43 2.5-6.103 1.6-1.674 3.7-2.461 6.2-2.461s4.6.787 6.2 2.46c1.6 1.674 2.5 3.643 2.5 6.104 0 2.462-.8 4.529-2.5 6.202-1.7 1.674-3.7 2.56-6.2 2.56s-4.6-.886-6.2-2.56c-1.7-1.673-2.5-3.74-2.5-6.202zm2.4 0c0 1.87.6 3.446 1.8 4.726 1.2 1.28 2.7 1.87 4.5 1.87 1.8 0 3.3-.59 4.5-1.87 1.2-1.28 1.8-2.855 1.8-4.726 0-1.772-.6-3.347-1.8-4.528-1.2-1.181-2.7-1.87-4.5-1.87-1.8 0-3.3.59-4.5 1.87-1.2 1.181-1.8 2.658-1.8 4.528z" fill="#fff"/></svg>