<svg width="37" height="37" fill="none" xmlns="http://www.w3.org/2000/svg"><path d="M10.568 7.167c0 .486.972.972 2.43.972 1.457 0 2.428-.486 2.428-.972s-.971-.972-2.429-.972c-1.214 0-2.43.243-2.43.972z" fill="#C6F7FF"/><path d="M36.803 16.155a4.354 4.354 0 00-4.372-4.373H10.082s-5.83.243-8.502-4.372c.243-3.4 2.915-5.83 6.316-5.83h9.717c3.643 0 6.315 2.915 6.315 6.316V9.11h1.215v-.97c0-4.373-3.4-7.774-7.773-7.774H8.139C3.766.365.365 3.766.365 8.14v11.417c0 4.372 3.401 7.773 7.774 7.773h1.7v-1.214H7.896c-3.644 0-6.316-2.915-6.316-6.316V9.597c.729.97 3.158 3.4 8.26 3.4h22.59c1.7 0 2.915 1.215 2.915 2.915v1.943c0 1.7-1.215 2.915-2.915 2.915H16.884a4.354 4.354 0 00-4.373 4.373v6.559a4.354 4.354 0 004.373 4.372H32.43a4.354 4.354 0 004.372-4.372V16.155zm-1.457 16.033c0 1.7-1.215 2.915-2.915 2.915H16.64c-1.7 0-2.915-1.215-2.915-2.915v-7.045c0-1.7 1.214-2.915 2.915-2.915h4.615v4.13h1.215v-4.13h7.773v4.13h1.215v-4.13h.972c1.214 0 2.429-.486 3.158-1.215v11.175h-.243z" fill="#C6F7FF"/></svg>